<?xml version="1.0" encoding="UTF-8"?>
<svg version="1.1" xmlns="http://www.w3.org/2000/svg" width="72" height="66">
<path d="M0,0 L4,0 L4,1 L7,1 L7,3 L9,3 L9,4 L10,4 L10,5 L11,5 L11,6 L12,6 L12,7 L13,7 L13,9 L15,9 L15,11 L16,11 L16,12 L17,12 L17,14 L18,14 L18,16 L19,16 L19,18 L21,18 L21,19 L22,19 L22,21 L31,21 L31,23 L29,23 L29,24 L22,24 L22,23 L20,23 L20,22 L18,22 L18,20 L17,20 L17,19 L16,19 L16,18 L15,18 L15,17 L14,17 L14,16 L13,16 L13,15 L12,15 L12,14 L11,14 L11,13 L10,13 L10,12 L9,12 L9,15 L10,15 L10,18 L11,18 L11,22 L12,22 L12,30 L11,30 L11,36 L12,36 L12,35 L13,35 L13,34 L14,34 L14,33 L15,33 L15,31 L17,31 L17,30 L18,30 L18,29 L19,29 L19,28 L22,28 L22,27 L24,27 L24,28 L28,28 L28,29 L30,29 L30,30 L31,30 L31,32 L29,32 L29,31 L21,31 L21,32 L19,32 L19,34 L18,34 L18,36 L17,36 L17,37 L16,37 L16,38 L15,38 L15,40 L14,40 L14,41 L13,41 L13,43 L12,43 L12,45 L11,45 L11,46 L10,46 L10,47 L9,47 L9,48 L8,48 L8,49 L7,49 L7,48 L5,48 L5,32 L6,32 L6,22 L5,22 L5,18 L4,18 L4,15 L3,15 L3,13 L2,13 L2,10 L1,10 L1,7 L0,7 L0,5 L-1,5 L-1,1 L0,1 Z M7,9 L7,10 L8,10 L8,9 Z M8,11 L8,12 L9,12 L9,11 Z M10,36 L10,38 L11,38 L11,36 Z " fill="#32C6E2" transform="translate(2,11)"/>
<path d="M0,0 L6,0 L6,1 L9,1 L9,2 L10,2 L10,5 L9,5 L9,6 L4,6 L4,5 L1,5 L1,7 L5,7 L5,8 L8,8 L8,9 L9,9 L9,10 L10,10 L10,12 L11,12 L11,15 L10,15 L10,18 L9,18 L9,19 L7,19 L7,20 L-1,20 L-1,19 L-3,19 L-3,18 L-5,18 L-5,15 L-4,15 L-4,14 L-3,14 L-3,13 L0,13 L0,14 L2,14 L2,15 L5,15 L5,14 L4,14 L4,13 L2,13 L2,12 L-1,12 L-1,11 L-3,11 L-3,10 L-4,10 L-4,2 L-2,2 L-2,1 L0,1 Z " fill="#37C7E3" transform="translate(57,28)"/>
<path d="M0,0 L10,0 L10,1 L14,1 L14,2 L17,2 L17,3 L20,3 L20,4 L21,4 L21,5 L23,5 L23,6 L25,6 L25,8 L27,8 L27,9 L28,9 L28,10 L29,10 L29,11 L30,11 L30,12 L31,12 L31,14 L32,14 L32,15 L33,15 L33,17 L34,17 L34,19 L35,19 L35,24 L34,24 L34,22 L33,22 L33,20 L32,20 L32,18 L31,18 L31,17 L30,17 L30,16 L29,16 L29,14 L28,14 L28,13 L27,13 L27,12 L26,12 L26,11 L25,11 L25,10 L23,10 L23,9 L22,9 L22,8 L21,8 L21,7 L18,7 L18,6 L16,6 L16,5 L14,5 L14,4 L9,4 L9,3 L-1,3 L-1,4 L-5,4 L-5,5 L-8,5 L-8,6 L-10,6 L-10,7 L-12,7 L-12,8 L-13,8 L-13,9 L-15,9 L-15,10 L-16,10 L-16,7 L-15,7 L-15,6 L-13,6 L-13,5 L-11,5 L-11,4 L-10,4 L-10,3 L-7,3 L-7,2 L-2,2 L-2,1 L0,1 Z " fill="#CEF1F8" transform="translate(29,0)"/>
<path d="M0,0 L1,0 L1,4 L2,4 L2,12 L1,12 L1,18 L2,18 L2,17 L3,17 L3,16 L4,16 L4,15 L5,15 L5,13 L7,13 L7,12 L8,12 L8,11 L9,11 L9,10 L12,10 L12,9 L14,9 L14,10 L18,10 L18,11 L20,11 L20,12 L21,12 L21,14 L19,14 L19,13 L11,13 L11,14 L9,14 L9,16 L8,16 L8,18 L7,18 L7,19 L6,19 L6,20 L5,20 L5,22 L4,22 L4,23 L3,23 L3,25 L2,25 L2,23 L-1,23 L-1,17 L0,17 Z M0,18 L0,20 L1,20 L1,18 Z " fill="#59D0E7" transform="translate(12,29)"/>
<path d="M0,0 L8,0 L8,1 L12,1 L12,2 L14,2 L14,3 L16,3 L16,4 L17,4 L17,5 L18,5 L18,6 L20,6 L20,7 L21,7 L21,8 L22,8 L22,9 L23,9 L23,11 L24,11 L24,12 L25,12 L25,15 L26,15 L26,16 L24,16 L24,15 L23,15 L23,14 L22,14 L22,12 L21,12 L21,11 L20,11 L20,10 L19,10 L19,9 L17,9 L17,7 L15,7 L15,6 L14,6 L14,5 L11,5 L11,4 L8,4 L8,3 L-3,3 L-3,4 L-6,4 L-6,5 L-9,5 L-9,6 L-10,6 L-10,7 L-11,7 L-11,8 L-14,8 L-14,6 L-13,6 L-13,5 L-12,5 L-12,4 L-10,4 L-10,3 L-8,3 L-8,2 L-6,2 L-6,1 L0,1 Z " fill="#BDECF5" transform="translate(31,8)"/>
<path d="M0,0 L1,0 L1,3 L0,3 L0,4 L-1,4 L-1,5 L-2,5 L-2,6 L-3,6 L-3,7 L-4,7 L-4,8 L-5,8 L-5,9 L-7,9 L-7,10 L-8,10 L-8,11 L-10,11 L-10,12 L-12,12 L-12,13 L-37,13 L-37,12 L-38,12 L-38,11 L-40,11 L-40,10 L-42,10 L-42,9 L-43,9 L-43,8 L-42,8 L-42,7 L-41,7 L-41,8 L-40,8 L-40,9 L-38,9 L-38,10 L-35,10 L-35,11 L-32,11 L-32,12 L-19,12 L-19,11 L-16,11 L-16,10 L-13,10 L-13,9 L-10,9 L-10,8 L-9,8 L-9,7 L-7,7 L-7,6 L-6,6 L-6,5 L-5,5 L-5,4 L-4,4 L-4,3 L-3,3 L-3,2 L-1,2 L-1,1 L0,1 Z " fill="#CBF0F7" transform="translate(59,53)"/>
<path d="M0,0 L10,0 L10,4 L4,4 L4,5 L9,5 L9,9 L4,9 L4,13 L0,13 Z " fill="#96DFEF" transform="translate(36,31)"/>
<path d="M0,0 L1,0 L1,1 L2,1 L2,2 L1,2 L1,3 L0,3 L0,4 L-1,4 L-1,5 L-3,5 L-3,6 L-4,6 L-4,7 L-6,7 L-6,8 L-8,8 L-8,9 L-11,9 L-11,10 L-23,10 L-23,9 L-25,9 L-25,8 L-28,8 L-28,7 L-29,7 L-29,6 L-31,6 L-31,4 L-28,4 L-28,5 L-27,5 L-27,6 L-23,6 L-23,7 L-11,7 L-11,6 L-8,6 L-8,5 L-6,5 L-6,4 L-4,4 L-4,3 L-2,3 L-2,2 L-1,2 L-1,1 L0,1 Z " fill="#BEECF5" transform="translate(51,50)"/>
<path d="M0,0 L12,0 L12,1 L14,1 L14,2 L15,2 L15,3 L17,3 L17,4 L18,4 L18,5 L19,5 L19,6 L20,6 L20,9 L18,9 L18,7 L16,7 L16,5 L14,5 L14,4 L12,4 L12,3 L10,3 L10,2 L1,2 L1,3 L-1,3 L-1,4 L-3,4 L-3,5 L-4,5 L-4,6 L-6,6 L-6,7 L-7,7 L-7,5 L-6,5 L-6,3 L-4,3 L-4,2 L-3,2 L-3,1 L0,1 Z " fill="#A3E4F1" transform="translate(28,17)"/>
<path d="M0,0 L4,0 L4,1 L5,1 L5,2 L4,2 L4,17 L0,17 Z " fill="#31C5E2" transform="translate(47,29)"/>
<path d="M0,0 L2,0 L2,1 L6,1 L6,2 L8,2 L8,3 L9,3 L9,5 L7,5 L7,4 L-1,4 L-1,5 L-3,5 L-3,7 L-4,7 L-4,9 L-5,9 L-5,6 L-7,6 L-7,4 L-5,4 L-5,3 L-4,3 L-4,2 L-3,2 L-3,1 L0,1 Z " fill="#53CEE6" transform="translate(24,38)"/>
<path d="M0,0 L3,0 L3,1 L6,1 L6,2 L9,2 L9,3 L10,3 L10,2 L14,2 L14,1 L17,1 L17,0 L20,0 L20,2 L18,2 L18,3 L17,3 L17,4 L12,4 L12,5 L8,5 L8,4 L4,4 L4,3 L2,3 L2,2 L1,2 L1,1 L0,1 Z " fill="#A8E6F2" transform="translate(24,47)"/>
<path d="M0,0 L9,0 L9,2 L2,2 L2,5 L7,5 L7,7 L2,7 L2,11 L0,11 Z " fill="#0ABCDD" transform="translate(37,32)"/>
<path d="M0,0 L2,0 L2,1 L3,1 L3,3 L12,3 L12,5 L10,5 L10,6 L3,6 L3,5 L1,5 L1,4 L-1,4 L-1,2 L0,2 Z " fill="#7AD9EC" transform="translate(21,29)"/>
<path d="M0,0 L5,0 L5,4 L4,4 L4,5 L3,5 L3,6 L2,6 L2,7 L1,7 L1,8 L0,8 L0,6 L-1,6 L-1,1 L0,1 Z " fill="#24C2E0" transform="translate(9,52)"/>
<path d="M0,0 L1,0 L1,1 L2,1 L2,2 L3,2 L3,3 L4,3 L4,5 L5,5 L5,6 L6,6 L6,9 L7,9 L7,10 L5,10 L5,9 L4,9 L4,8 L3,8 L3,6 L2,6 L2,5 L1,5 L1,4 L0,4 L0,3 L-2,3 L-2,1 L0,1 Z " fill="#C9EFF7" transform="translate(50,14)"/>
<path d="M0,0 L3,0 L3,4 L2,4 L2,5 L1,5 L1,4 L-2,4 L-2,6 L-4,6 L-4,5 L-3,5 L-3,3 L-2,3 L-2,2 L-1,2 L-1,1 L0,1 Z " fill="#46CBE5" transform="translate(16,44)"/>
<path d="M0,0 L3,0 L3,2 L1,2 L1,3 L0,3 L0,4 L-4,4 L-4,3 L-7,3 L-7,2 L-3,2 L-3,1 L0,1 Z " fill="#BBEBF5" transform="translate(41,47)"/>
<path d="M0,0 L1,0 L1,1 L3,1 L3,2 L4,2 L4,3 L5,3 L5,4 L6,4 L6,7 L4,7 L4,5 L2,5 L2,3 L0,3 L0,2 L-2,2 L-2,1 L0,1 Z " fill="#AFE7F3" transform="translate(42,19)"/>
<path d="M0,0 L3,0 L3,1 L5,1 L5,2 L6,2 L6,4 L4,4 L4,3 L-3,3 L-3,2 L1,2 L1,1 L0,1 Z " fill="#8FDDEE" transform="translate(27,39)"/>
</svg>
